<svg width="2353" height="1282" viewBox="0 0 2353 1282" fill="none" xmlns="http://www.w3.org/2000/svg">
<g clip-path="url(#clip0_711_1479)">
<rect width="2352.6" height="1281.87" fill="url(#paint0_radial_711_1479)"/>
<rect x="-27.999" y="-111" width="300.982" height="300.683" stroke="#A5B4FC" stroke-width="3.77019" stroke-dasharray="15.08 15.08"/>
<rect x="-28" y="189.681" width="300.982" height="300.683" stroke="#A5B4FC" stroke-width="3.77019" stroke-dasharray="15.08 15.08"/>
<rect x="-28" y="490.365" width="300.982" height="300.683" stroke="#A5B4FC" stroke-width="3.77019" stroke-dasharray="15.08 15.08"/>
<rect x="-28" y="791.048" width="300.982" height="300.683" stroke="#A5B4FC" stroke-width="3.77019" stroke-dasharray="15.08 15.08"/>
<rect x="-28" y="1091.73" width="300.982" height="300.683" stroke="#A5B4FC" stroke-width="3.77019" stroke-dasharray="15.08 15.08"/>
<rect x="273" y="1091.73" width="300.982" height="300.683" stroke="#A5B4FC" stroke-width="3.77019" stroke-dasharray="15.08 15.08"/>
<rect x="1777.89" y="-111" width="300.982" height="300.683" stroke="#A5B4FC" stroke-width="3.77019" stroke-dasharray="15.08 15.08"/>
<rect x="1777.89" y="1091.73" width="300.982" height="300.683" stroke="#A5B4FC" stroke-width="3.77019" stroke-dasharray="15.08 15.08"/>
<rect x="1476.92" y="-111" width="300.982" height="300.683" stroke="#A5B4FC" stroke-width="3.77019" stroke-dasharray="15.08 15.08"/>
<rect x="1176" y="-111" width="300.982" height="300.683" stroke="#A5B4FC" stroke-width="3.77019" stroke-dasharray="15.08 15.08"/>
<rect x="876" y="-111" width="300.982" height="300.683" stroke="#A5B4FC" stroke-width="3.77019" stroke-dasharray="15.08 15.08"/>
<rect x="576" y="-111" width="300.982" height="300.683" stroke="#A5B4FC" stroke-width="3.77019" stroke-dasharray="15.08 15.08"/>
<rect x="273" y="-111" width="300.982" height="300.683" stroke="#A5B4FC" stroke-width="3.77019" stroke-dasharray="15.08 15.08"/>
<rect x="1778" y="189" width="300.982" height="300.683" stroke="#A5B4FC" stroke-width="3.77019" stroke-dasharray="15.08 15.08"/>
<rect x="2078.87" y="-111" width="300.982" height="300.683" stroke="#A5B4FC" stroke-width="3.77019" stroke-dasharray="15.08 15.08"/>
<rect x="2078.87" y="189.681" width="300.982" height="300.683" stroke="#A5B4FC" stroke-width="3.77019" stroke-dasharray="15.08 15.08"/>
<rect x="2078.87" y="490.365" width="300.982" height="300.683" stroke="#A5B4FC" stroke-width="3.77019" stroke-dasharray="15.08 15.08"/>
<rect x="1778" y="791" width="300.982" height="300.683" stroke="#A5B4FC" stroke-width="3.77019" stroke-dasharray="15.08 15.08"/>
<rect x="1778" y="491" width="300.982" height="300.683" stroke="#A5B4FC" stroke-width="3.77019" stroke-dasharray="15.08 15.08"/>
<rect x="1477" y="1092" width="300.982" height="300.683" stroke="#A5B4FC" stroke-width="3.77019" stroke-dasharray="15.08 15.08"/>
<rect x="574" y="1092.27" width="300.982" height="300.683" stroke="#A5B4FC" stroke-width="3.77019" stroke-dasharray="15.08 15.08"/>
<rect x="875" y="1092.27" width="300.982" height="300.683" stroke="#A5B4FC" stroke-width="3.77019" stroke-dasharray="15.08 15.08"/>
<rect x="2078.87" y="791.051" width="300.982" height="300.683" stroke="#A5B4FC" stroke-width="3.77019" stroke-dasharray="15.08 15.08"/>
<rect x="2078.87" y="1091.73" width="300.982" height="300.683" stroke="#A5B4FC" stroke-width="3.77019" stroke-dasharray="15.08 15.08"/>
<rect x="1175.87" y="1092" width="300.982" height="300.683" stroke="#A5B4FC" stroke-width="3.77019" stroke-dasharray="15.08 15.08"/>
<path d="M2068.27 1072.62C2073.1 1065.16 2076.47 1056.11 2078.45 1046.08C2080.59 1056.91 2084.35 1066.61 2089.82 1074.4C2095.65 1082.69 2103.41 1088.77 2113.08 1091.71C2103.05 1095.05 2095.13 1101.83 2089.35 1110.93C2084.67 1118.29 2081.4 1127.16 2079.47 1136.95C2077.43 1126.71 2073.96 1117.51 2068.99 1109.97C2063.09 1101.01 2055.07 1094.44 2044.92 1091.35C2054.75 1088.08 2062.54 1081.49 2068.27 1072.62Z" fill="#FCA5A5" stroke="#A5B4FC" stroke-width="4.28715"/>
<path d="M2069.4 170.624C2074.22 163.161 2077.59 154.109 2079.57 144.077C2081.71 154.912 2085.47 164.612 2090.94 172.399C2096.78 180.693 2104.53 186.774 2114.21 189.707C2104.17 193.049 2096.25 199.827 2090.47 208.93C2085.79 216.292 2082.52 225.156 2080.6 234.946C2078.55 224.714 2075.08 215.507 2070.11 207.967C2064.21 199.009 2056.19 192.44 2046.04 189.352C2055.87 186.076 2063.66 179.487 2069.4 170.624Z" fill="#5EEAD4" stroke="#A5B4FC" stroke-width="4.28715"/>
<rect x="2353.1" y="758" width="46.8039" height="46.8039" transform="rotate(45 2353.1 758)" fill="#A5B4FC"/>
<rect x="0.0957031" y="157" width="46.8039" height="46.8039" transform="rotate(45 0.0957031 157)" fill="#A5B4FC"/>
<rect x="16" y="1076" width="32" height="32" rx="16" transform="rotate(90 16 1076)" fill="#A5B4FC"/>
<g filter="url(#filter0_d_711_1479)">
<rect x="391" y="627.407" width="370.321" height="370.321" rx="61.4703" fill="white"/>
</g>
<g clip-path="url(#clip1_711_1479)">
<path d="M525.694 868.97L541.614 860.098L544.223 819.911L524.653 807.123L516.821 802.166L525.694 868.97Z" fill="url(#paint1_linear_711_1479)"/>
<path d="M493.53 800.27C493.53 800.27 506.386 826.175 508.995 859.314L525.695 868.971L516.823 802.166L493.53 800.27Z" fill="url(#paint2_linear_711_1479)"/>
<path d="M502.043 755.225C512.264 737.522 512.61 718.586 502.816 712.931C493.021 707.277 476.795 717.044 466.574 734.747C456.353 752.451 456.007 771.386 465.802 777.041C475.596 782.696 491.822 772.929 502.043 755.225Z" fill="url(#paint3_linear_711_1479)"/>
<path d="M558.354 737.261L514.834 812.64L476.696 790.49C463.71 782.991 462.923 760.038 474.942 739.225C486.958 718.407 507.227 707.612 520.216 715.111L558.354 737.261Z" fill="url(#paint4_linear_711_1479)"/>
<path d="M560.107 788.526C572.125 767.711 571.339 744.759 558.353 737.261C545.366 729.763 525.096 740.559 513.078 761.375C501.061 782.19 501.846 805.142 514.833 812.64C527.819 820.138 548.089 809.342 560.107 788.526Z" fill="#A624BB"/>
<path d="M559.209 741.142C558.526 740.559 557.794 740.037 557.007 739.585C545.349 732.855 526.757 743.232 515.484 762.762C504.207 782.291 504.517 803.583 516.174 810.313C516.555 810.533 516.943 810.735 517.339 810.918C538.279 822.105 552.441 849.1 552.441 849.1L560.877 841.84L575.543 795.643L598.642 768.876L608.832 751.22C579.467 751.761 564.446 744.434 559.209 741.142Z" fill="url(#paint5_linear_711_1479)"/>
<path d="M581.267 800.951C550.651 853.799 557.632 895.673 581.693 906.165C608.535 917.871 647.923 897.405 673.025 853.926C698.128 810.447 696.803 765.169 672.6 748.711C651.245 734.187 613.104 745.997 581.267 800.951Z" fill="url(#paint6_linear_711_1479)"/>
<path d="M601.568 776.659L640.638 806.461L616.021 849.1L571.467 830.556L583.538 802.187L601.568 776.659Z" fill="url(#paint7_linear_711_1479)"/>
<path d="M640.82 834.993C647.618 823.219 647.536 810.445 640.638 806.462C633.739 802.479 622.636 808.796 615.838 820.57C609.04 832.344 609.122 845.118 616.02 849.101C622.919 853.084 634.022 846.767 640.82 834.993Z" fill="#A624BB"/>
<path d="M656.789 743.184V749.156C662.004 749.156 666.718 750.354 670.809 752.717C675.934 755.677 679.936 760.362 682.705 766.648C685.55 773.101 686.991 780.925 686.994 789.903C686.994 799.149 685.468 809.078 682.448 819.417C679.294 830.231 674.646 840.985 668.64 851.388C659.137 867.853 647.151 881.81 633.986 891.758C621.686 901.049 609.014 906.162 598.301 906.162C593.086 906.162 588.364 904.964 584.273 902.601C579.148 899.641 575.147 894.957 572.377 888.671C569.533 882.217 568.092 874.393 568.088 865.416C568.088 856.17 569.615 846.241 572.634 835.901C575.789 825.087 580.436 814.333 586.442 803.93C595.945 787.469 607.931 773.508 621.097 763.564C633.396 754.277 646.069 749.16 656.782 749.156V743.184M656.782 743.184C632.28 743.184 601.694 765.561 581.268 800.944C555.721 845.192 555.729 893.019 581.287 907.775C586.408 910.731 592.16 912.135 598.301 912.135C622.802 912.135 653.389 889.757 673.814 854.374C699.361 810.127 699.353 762.299 673.795 747.543C668.674 744.587 662.922 743.184 656.782 743.184Z" fill="#A624BB"/>
<path d="M581.271 800.946C601.697 765.567 632.283 743.189 656.785 743.185C656.785 743.185 656.785 743.185 656.788 743.185C662.626 743.185 668.113 744.458 673.041 747.127C671.723 745.981 670.338 744.91 668.882 743.928C645.187 728.004 604.231 738.937 571.686 795.096C540.387 849.105 549.483 893.036 575.971 904.854C576.74 905.197 577.52 905.511 578.304 905.809C555.777 889.135 556.762 843.394 581.268 800.946H581.271Z" fill="#BE54D5"/>
<path d="M474.134 776.283L497.949 789.455C498.573 789.799 498.961 790.456 498.961 791.169V791.471C498.961 792.972 497.341 793.916 496.034 793.177L472.219 779.698C471.604 779.351 471.227 778.698 471.227 777.992C471.227 776.499 472.828 775.555 474.134 776.279V776.283Z" fill="#A624BB"/>
</g>
<g filter="url(#filter1_d_711_1479)">
<rect x="847" y="627.407" width="370.321" height="370.321" rx="61.4703" fill="white"/>
</g>
<g clip-path="url(#clip2_711_1479)">
<path d="M1032.85 747.1L1007.25 745.722C1007.25 745.722 979.005 764.174 964.163 792.257C952.985 813.398 950.45 859.105 949.882 880.397C949.572 892.032 954.235 903.326 962.917 911.076C963.107 911.246 963.3 911.412 963.493 911.579C964.043 912.051 964.31 912.778 964.202 913.494L963.699 916.829C963.374 918.973 964.321 921.128 966.155 922.281C967.788 923.31 970.203 924.374 973.619 924.893C981.385 926.069 982.565 922.42 997.507 928.657C1012.45 934.894 1099.88 941.565 1114.37 889.919C1114.37 889.919 1120.37 807.734 1089.85 774.741C1059.33 741.748 1052.2 744.55 1052.2 744.55L1032.85 747.092V747.1Z" fill="url(#paint8_radial_711_1479)"/>
<path d="M1059.31 871.105C1060.03 878.008 1063.34 879.977 1068.22 877.834C1073.87 875.358 1075.72 871.063 1075.72 866.42C1075.72 861.061 1073.6 859.076 1065.84 858.457C1054.23 857.087 1049.66 853.025 1049.66 841.928C1049.66 828.788 1056.91 819.846 1067.23 817.455C1079.18 814.689 1085.5 820.218 1085.75 830.932L1074.79 834.174C1074.37 830.092 1073.11 825.844 1067.3 827.376C1063.56 828.355 1061.02 831.996 1061.02 836.716C1061.02 841.436 1062.67 843.383 1071.12 844.555C1082.33 845.708 1087.08 849.999 1087.08 859.625C1087.08 873.272 1079.33 882.585 1067.92 887.979C1056.5 893.372 1049.08 889.202 1048.35 875.532L1059.32 871.109L1059.31 871.105ZM1063.38 822.052V811.423L1072.57 809.512V819.812L1063.38 822.052ZM1063.38 899.002V888.165L1072.57 883.881V894.386L1063.38 899.002Z" fill="#12A49B"/>
<path opacity="0.55" d="M1033.29 744.121C1047.67 744.121 1059.33 738.493 1059.33 731.55C1059.33 724.608 1047.67 718.979 1033.29 718.979C1018.9 718.979 1007.24 724.608 1007.24 731.55C1007.24 738.493 1018.9 744.121 1033.29 744.121Z" fill="black"/>
<path d="M1063.29 714.768C1063.29 714.768 1059.71 723.945 1059.33 731.556V741.755L1033.29 751.993L1007.24 741.248V731.556C1007.24 731.556 1007.19 725.006 1004.54 721.024C1001.88 717.043 1002.46 713.305 1002.46 713.305L1063.29 714.768H1063.29Z" fill="url(#paint9_radial_711_1479)"/>
<path d="M1054.63 700.414C1052.84 699.431 1051.2 698.224 1049.65 696.897C1048.08 695.554 1045.69 694.691 1043 694.691C1041.8 694.691 1040.66 694.865 1039.63 695.175C1038 695.693 1036.23 695.554 1034.7 694.784L1034.26 694.564C1034.24 694.552 1034.22 694.544 1034.19 694.533L1033.85 694.359V694.366C1030.46 692.757 1026.7 693.233 1024.79 695.751C1024.72 695.848 1024.65 695.945 1024.59 696.046C1024.06 696.862 1023.29 697.485 1022.35 697.76C1022.27 697.787 1022.17 697.814 1022.08 697.841C1020.13 698.441 1018.08 698.545 1016.06 698.228C1013.39 697.81 1010.79 698.642 1009.26 700.673C1008.59 701.559 1008.19 702.581 1008.05 703.652C1007.79 705.668 1006.68 707.448 1005.16 708.794C1003.67 710.114 1002.78 711.894 1002.83 713.832C1002.92 716.947 1005.43 719.528 1008.83 720.379C1010.29 720.746 1011.65 721.431 1012.77 722.441C1014.83 724.291 1017.87 725.923 1021.43 726.918C1022.8 727.301 1024.14 727.556 1025.43 727.703C1025.43 727.703 1028.52 728.148 1035.27 728.148C1050.75 728.148 1063.29 720.94 1063.29 712.048C1063.29 707.471 1059.97 703.343 1054.64 700.414H1054.63Z" fill="url(#paint10_radial_711_1479)"/>
<path d="M1035.27 728.533C1028.57 728.533 1025.51 728.104 1025.38 728.085L1025.3 728.073C1023.97 727.918 1022.63 727.651 1021.32 727.284C1017.83 726.309 1014.7 724.687 1012.51 722.722C1011.46 721.778 1010.19 721.112 1008.73 720.749C1005.06 719.832 1002.53 717.053 1002.44 713.838C1002.39 711.849 1003.26 709.954 1004.9 708.503C1006.45 707.121 1007.44 705.38 1007.66 703.6C1007.82 702.424 1008.24 701.36 1008.94 700.439C1010.51 698.358 1013.2 697.386 1016.11 697.847C1018.15 698.164 1020.12 698.04 1021.96 697.472L1022.24 697.39C1023.04 697.15 1023.76 696.597 1024.25 695.835C1024.32 695.727 1024.39 695.622 1024.47 695.518C1026.36 693.014 1030.04 692.345 1033.55 693.811V693.788L1034.86 694.438C1036.31 695.165 1037.96 695.297 1039.5 694.802L1040 694.639V694.662C1040.96 694.423 1041.96 694.299 1042.99 694.299C1045.68 694.299 1048.19 695.135 1049.89 696.597C1051.58 698.04 1053.19 699.178 1054.81 700.072C1060.52 703.21 1063.67 707.462 1063.67 712.047C1063.67 721.139 1050.92 728.533 1035.26 728.533H1035.27ZM1026.14 727.392C1027.36 727.516 1030.35 727.756 1035.27 727.76C1050.5 727.76 1062.9 720.71 1062.9 712.047C1062.9 707.76 1059.9 703.747 1054.45 700.749C1052.78 699.832 1051.13 698.667 1049.4 697.185C1047.84 695.843 1045.51 695.076 1043.01 695.076C1041.88 695.076 1040.78 695.235 1039.74 695.545L1039.24 695.692V695.68C1037.66 696.059 1036 695.87 1034.53 695.131L1033.69 694.717C1030.38 693.15 1026.86 693.668 1025.11 695.986C1025.04 696.075 1024.98 696.164 1024.92 696.257C1024.32 697.174 1023.45 697.839 1022.47 698.133L1022.2 698.214C1020.24 698.814 1018.16 698.95 1016.01 698.613C1013.38 698.203 1010.97 699.058 1009.57 700.907C1008.96 701.72 1008.58 702.66 1008.45 703.705C1008.19 705.674 1007.12 707.586 1005.42 709.091C1003.96 710.391 1003.18 712.07 1003.23 713.827C1003.31 716.69 1005.6 719.174 1008.93 720.006C1010.51 720.4 1011.89 721.124 1013.04 722.153C1015.14 724.041 1018.16 725.601 1021.54 726.545C1022.85 726.908 1024.17 727.168 1025.49 727.318L1026.15 727.392H1026.14Z" fill="url(#paint11_linear_711_1479)"/>
<path d="M1013.8 756.426L1012.02 754.646L1010.25 752.863C1009.88 753.226 1001.17 762.006 991.544 782.385C982.737 801.019 971.459 833.388 967.717 881.769C966.502 897.497 965.806 910.706 965.508 921.807C965.709 921.981 965.926 922.14 966.154 922.287C967.237 922.968 968.661 923.664 970.495 924.21C970.747 912.896 971.428 899.068 972.735 882.159C976.4 834.746 987.38 803.077 995.943 784.857C1005.21 765.144 1013.72 756.515 1013.8 756.43L1013.8 756.426Z" fill="url(#paint12_linear_711_1479)"/>
<path d="M968.123 919.193H968.108C968.004 919.189 967.911 919.146 967.837 919.069C967.768 918.996 967.729 918.895 967.733 918.794C967.756 918.156 967.775 917.51 967.798 916.856V916.817C967.822 916.628 967.984 916.484 968.182 916.484H968.193C968.402 916.492 968.565 916.659 968.568 916.864V916.883C968.545 917.537 968.522 918.187 968.503 918.818C968.495 919.026 968.329 919.193 968.12 919.193H968.123ZM968.367 912.619H968.348C968.247 912.619 968.151 912.569 968.081 912.495C968.011 912.418 967.976 912.317 967.98 912.217L968 911.756C968.019 911.269 968.042 910.777 968.062 910.282C968.073 910.069 968.259 909.899 968.468 909.915C968.673 909.922 968.835 910.093 968.839 910.298C968.839 910.305 968.839 910.309 968.839 910.317C968.812 910.955 968.781 911.605 968.758 912.248C968.746 912.457 968.576 912.619 968.371 912.619H968.367ZM968.677 906.049H968.657C968.553 906.041 968.456 905.999 968.387 905.922C968.321 905.844 968.282 905.744 968.29 905.643C968.325 904.974 968.359 904.289 968.39 903.708C968.402 903.496 968.588 903.329 968.801 903.345C969.006 903.356 969.164 903.527 969.164 903.732V903.751C969.129 904.362 969.095 905.016 969.064 905.682C969.052 905.887 968.882 906.049 968.677 906.049ZM969.04 899.483C969.04 899.483 969.025 899.483 969.017 899.483C968.804 899.472 968.642 899.29 968.654 899.077C968.692 898.439 968.735 897.792 968.773 897.142C968.785 896.933 968.975 896.767 969.184 896.783C969.389 896.794 969.547 896.964 969.547 897.173V897.193C969.505 897.839 969.466 898.485 969.427 899.123C969.416 899.325 969.246 899.487 969.04 899.487V899.483ZM969.458 892.917H969.431C969.331 892.909 969.234 892.863 969.168 892.786C969.099 892.708 969.068 892.608 969.071 892.503C969.114 891.865 969.16 891.222 969.203 890.576C969.218 890.364 969.408 890.201 969.617 890.217C969.822 890.228 969.981 890.402 969.977 890.607V890.627C969.942 891.141 969.907 891.652 969.872 892.159L969.845 892.557C969.83 892.759 969.66 892.917 969.458 892.917ZM969.923 886.355H969.892C969.787 886.347 969.694 886.301 969.629 886.223C969.559 886.142 969.528 886.046 969.536 885.941C969.582 885.303 969.629 884.66 969.679 884.01C969.694 883.801 969.872 883.639 970.093 883.654C970.298 883.67 970.457 883.844 970.453 884.049V884.068C970.402 884.715 970.352 885.361 970.306 885.999C970.29 886.2 970.124 886.355 969.923 886.355ZM970.43 879.801C970.43 879.801 970.406 879.797 970.395 879.797C970.294 879.789 970.197 879.739 970.132 879.661C970.066 879.584 970.035 879.483 970.043 879.379C970.097 878.729 970.151 878.094 970.209 877.448C970.228 877.239 970.41 877.084 970.627 877.1C970.828 877.115 970.979 877.282 970.979 877.479V877.518C970.925 878.11 970.871 878.74 970.813 879.445C970.797 879.642 970.627 879.801 970.43 879.801ZM971.029 873.25C971.029 873.25 971.006 873.25 970.991 873.25C970.89 873.242 970.797 873.192 970.731 873.111C970.666 873.03 970.635 872.929 970.646 872.828C970.72 872.089 970.782 871.474 970.844 870.902C970.867 870.689 971.06 870.534 971.269 870.557C971.466 870.577 971.617 870.743 971.617 870.944C971.617 870.956 971.617 870.967 971.617 870.983C971.54 871.726 971.478 872.337 971.42 872.906C971.401 873.103 971.234 873.254 971.033 873.254L971.029 873.25ZM971.745 866.711C971.745 866.711 971.714 866.711 971.699 866.707C971.486 866.684 971.335 866.491 971.358 866.278C971.436 865.62 971.517 864.974 971.59 864.355C971.617 864.15 971.807 863.995 972.024 864.022C972.217 864.045 972.36 864.208 972.364 864.401C972.364 864.421 972.364 864.436 972.364 864.452C972.279 865.121 972.205 865.748 972.132 866.371C972.109 866.564 971.946 866.711 971.749 866.711H971.745ZM972.573 860.188C972.573 860.188 972.538 860.188 972.523 860.184C972.418 860.168 972.329 860.118 972.264 860.033C972.202 859.952 972.175 859.851 972.19 859.747C972.271 859.135 972.364 858.493 972.457 857.831C972.484 857.622 972.689 857.472 972.894 857.503C973.08 857.53 973.223 857.692 973.227 857.882C973.227 857.901 973.227 857.92 973.223 857.94C973.134 858.559 973.045 859.201 972.956 859.851C972.929 860.045 972.767 860.188 972.573 860.188ZM973.521 853.68C973.521 853.68 973.482 853.68 973.463 853.68C973.25 853.645 973.107 853.448 973.138 853.239C973.254 852.507 973.351 851.896 973.444 851.323C973.475 851.114 973.68 850.971 973.885 851.006C974.074 851.033 974.214 851.196 974.21 851.389C974.21 851.409 974.21 851.428 974.206 851.447C974.109 852.051 974.016 852.647 973.904 853.355C973.873 853.544 973.714 853.684 973.521 853.684V853.68ZM974.593 847.191C974.593 847.191 974.55 847.191 974.527 847.191C974.318 847.152 974.179 846.951 974.214 846.742C974.334 846.061 974.446 845.435 974.554 844.835C974.593 844.63 974.794 844.487 975.003 844.525C975.189 844.556 975.324 844.719 975.324 844.904C975.324 844.928 975.32 844.951 975.316 844.974C975.216 845.531 975.096 846.189 974.976 846.878C974.945 847.063 974.782 847.195 974.593 847.195V847.191ZM975.8 840.726C975.773 840.726 975.75 840.726 975.723 840.718C975.514 840.679 975.378 840.474 975.421 840.265C975.533 839.689 975.653 839.085 975.8 838.366C975.843 838.16 976.048 838.021 976.257 838.064C976.434 838.099 976.566 838.261 976.566 838.443C976.566 838.462 976.566 838.478 976.566 838.497V838.52C976.566 838.52 976.558 838.536 976.554 838.543C976.419 839.221 976.299 839.832 976.183 840.416C976.144 840.594 975.986 840.726 975.804 840.726H975.8ZM977.139 834.287C977.112 834.287 977.081 834.287 977.054 834.28C976.848 834.233 976.713 834.028 976.76 833.819C976.891 833.223 977.026 832.604 977.181 831.927C977.228 831.726 977.44 831.591 977.642 831.637C977.82 831.676 977.943 831.83 977.943 832.012C977.943 832.043 977.943 832.07 977.936 832.097C977.8 832.701 977.657 833.336 977.514 833.986C977.479 834.16 977.317 834.287 977.139 834.287ZM978.617 827.88C978.586 827.88 978.559 827.876 978.528 827.872C978.427 827.845 978.342 827.783 978.288 827.694C978.234 827.605 978.218 827.501 978.241 827.4C978.416 826.696 978.566 826.081 978.706 825.524C978.756 825.319 978.973 825.187 979.174 825.241C979.348 825.284 979.468 825.439 979.468 825.613C979.468 825.647 979.468 825.678 979.456 825.709C979.309 826.298 979.158 826.909 978.996 827.586C978.953 827.76 978.799 827.88 978.617 827.88ZM980.246 821.507C980.215 821.507 980.18 821.507 980.145 821.496C980.044 821.469 979.963 821.403 979.913 821.314C979.859 821.225 979.847 821.121 979.874 821.024C980.048 820.362 980.215 819.755 980.381 819.155C980.435 818.95 980.652 818.826 980.857 818.884C981.023 818.931 981.139 819.081 981.139 819.252C981.139 819.287 981.139 819.321 981.128 819.36C980.965 819.944 980.799 820.552 980.621 821.221C980.575 821.391 980.42 821.507 980.246 821.507ZM982.029 815.177C981.991 815.177 981.956 815.174 981.921 815.162C981.716 815.104 981.596 814.887 981.658 814.682C981.82 814.125 981.998 813.537 982.215 812.825L982.25 812.701V812.74C982.339 812.593 982.525 812.515 982.695 812.57C982.857 812.616 982.97 812.767 982.97 812.937C982.97 812.976 982.97 813.015 982.954 813.053C982.764 813.676 982.579 814.299 982.401 814.903C982.35 815.065 982.2 815.177 982.029 815.177ZM983.972 808.898C983.933 808.898 983.894 808.89 983.856 808.878C983.755 808.847 983.678 808.778 983.627 808.685C983.581 808.596 983.573 808.488 983.604 808.391C983.79 807.814 983.991 807.211 984.208 806.549C984.277 806.352 984.498 806.236 984.699 806.305C984.858 806.36 984.962 806.503 984.962 806.669C984.962 806.712 984.958 806.754 984.943 806.797C984.749 807.381 984.544 808 984.343 808.631C984.289 808.789 984.142 808.898 983.972 808.898ZM986.088 802.668C986.042 802.668 985.999 802.661 985.957 802.649C985.759 802.576 985.651 802.355 985.724 802.154C985.929 801.57 986.154 800.943 986.378 800.331C986.452 800.134 986.68 800.03 986.877 800.099C987.028 800.153 987.129 800.3 987.129 800.463C987.129 800.509 987.121 800.552 987.106 800.595C986.889 801.186 986.668 801.798 986.452 802.413C986.398 802.568 986.251 802.668 986.088 802.668ZM988.379 796.509C988.332 796.509 988.286 796.497 988.239 796.482C988.042 796.404 987.941 796.176 988.019 795.979C988.278 795.321 988.51 794.733 988.731 794.176C988.808 793.982 989.04 793.881 989.234 793.963C989.385 794.021 989.478 794.164 989.478 794.323C989.478 794.373 989.47 794.419 989.45 794.462C989.183 795.127 988.951 795.715 988.742 796.261C988.684 796.412 988.541 796.509 988.379 796.509ZM990.863 790.419C990.812 790.419 990.762 790.407 990.712 790.384C990.619 790.345 990.545 790.272 990.507 790.175C990.468 790.078 990.468 789.974 990.507 789.877C990.766 789.273 991.021 788.685 991.265 788.124L991.277 788.097C991.362 787.911 991.598 787.818 991.787 787.9C991.931 787.962 992.02 788.105 992.02 788.26C992.02 788.31 992.008 788.36 991.985 788.41C991.702 789.06 991.451 789.641 991.219 790.183C991.161 790.326 991.021 790.419 990.863 790.419ZM993.548 784.414C993.494 784.414 993.436 784.402 993.385 784.375C993.192 784.286 993.107 784.054 993.2 783.86C993.49 783.237 993.765 782.665 994.032 782.111C994.117 781.926 994.36 781.841 994.546 781.93C994.682 781.995 994.767 782.127 994.767 782.278C994.763 782.336 994.751 782.394 994.728 782.448C994.438 783.044 994.159 783.632 993.9 784.189C993.834 784.325 993.699 784.414 993.548 784.414ZM996.446 778.509C996.384 778.509 996.326 778.494 996.272 778.467C996.082 778.37 996.005 778.134 996.105 777.948C996.411 777.348 996.713 776.772 997.003 776.226C997.1 776.045 997.344 775.971 997.525 776.068C997.649 776.133 997.731 776.265 997.731 776.404C997.731 776.47 997.715 776.532 997.684 776.59C997.386 777.155 997.084 777.731 996.79 778.3C996.725 778.428 996.593 778.509 996.446 778.509ZM999.58 772.729C999.514 772.729 999.448 772.709 999.39 772.674C999.205 772.57 999.139 772.334 999.243 772.148C999.541 771.626 999.859 771.076 1000.21 770.469C1000.32 770.291 1000.57 770.229 1000.74 770.334C1000.86 770.403 1000.93 770.523 1000.93 770.662C1000.94 770.732 1000.92 770.802 1000.88 770.864C1000.56 771.405 1000.24 771.97 999.917 772.531C999.847 772.651 999.719 772.729 999.58 772.729ZM1002.97 767.091C1002.9 767.091 1002.83 767.072 1002.76 767.029C1002.58 766.917 1002.53 766.677 1002.64 766.495C1002.98 765.973 1003.32 765.443 1003.7 764.866C1003.81 764.696 1004.06 764.642 1004.23 764.754C1004.34 764.828 1004.4 764.948 1004.41 765.075C1004.41 765.153 1004.39 765.226 1004.34 765.292C1004.01 765.807 1003.65 766.348 1003.3 766.913C1003.22 767.025 1003.1 767.091 1002.97 767.091ZM1006.66 761.643C1006.58 761.643 1006.49 761.616 1006.43 761.57C1006.35 761.508 1006.29 761.419 1006.27 761.315C1006.26 761.214 1006.28 761.113 1006.34 761.028C1006.74 760.475 1007.13 759.949 1007.5 759.465C1007.62 759.299 1007.87 759.264 1008.04 759.388C1008.13 759.461 1008.19 759.577 1008.19 759.701C1008.19 759.782 1008.17 759.864 1008.11 759.929C1007.75 760.405 1007.37 760.928 1006.97 761.481C1006.9 761.581 1006.78 761.643 1006.66 761.643Z" fill="#017E85"/>
<path d="M1033.1 744.122C1018.72 744.122 1007.06 738.524 1007.06 731.621V749.965C1007.06 756.871 1018.71 762.466 1033.1 762.466C1047.48 762.466 1059.14 756.868 1059.14 749.965V731.621C1059.14 738.528 1047.48 744.122 1033.1 744.122Z" fill="#12A49B"/>
<path d="M1027.63 743.845C1027.22 743.802 1026.82 743.756 1026.42 743.706V762.053C1026.82 762.104 1027.22 762.15 1027.63 762.193V743.845Z" fill="#017E85"/>
<path d="M1010.04 737.428V755.776C1010.42 756.113 1010.82 756.441 1011.25 756.763V738.415C1010.82 738.094 1010.42 737.765 1010.04 737.428Z" fill="#017E85"/>
<path d="M1023.54 743.247C1023.13 743.17 1022.73 743.089 1022.33 743V761.347C1022.73 761.432 1023.13 761.517 1023.54 761.595V743.247Z" fill="#017E85"/>
<path d="M1031.73 744.108C1031.32 744.097 1030.92 744.085 1030.52 744.066V762.414C1030.92 762.433 1031.32 762.448 1031.73 762.456V744.108Z" fill="#017E85"/>
<path d="M1019.44 742.265C1019.03 742.145 1018.63 742.017 1018.23 741.882V760.23C1018.63 760.361 1019.03 760.489 1019.44 760.613V742.265Z" fill="#017E85"/>
<path d="M1015.35 740.761C1014.93 740.575 1014.53 740.381 1014.14 740.184V758.532C1014.53 758.729 1014.93 758.923 1015.35 759.108V740.761Z" fill="#017E85"/>
<path d="M1052.2 740.117C1051.82 740.318 1051.41 740.512 1051 740.701V759.049C1051.41 758.86 1051.81 758.666 1052.2 758.465V740.117Z" fill="#017E85"/>
<path d="M1048.11 741.835C1047.71 741.971 1047.31 742.099 1046.9 742.222V760.57C1047.31 760.446 1047.71 760.319 1048.11 760.183V741.835Z" fill="#017E85"/>
<path d="M1034.62 744.099V762.446C1035.02 762.435 1035.42 762.419 1035.83 762.4V744.052C1035.43 744.072 1035.02 744.087 1034.62 744.099Z" fill="#017E85"/>
<path d="M1056.3 737.301C1055.93 737.649 1055.53 737.986 1055.09 738.315V756.662C1055.52 756.333 1055.93 755.997 1056.3 755.648V737.305V737.301Z" fill="#017E85"/>
<path d="M1039.92 743.69C1039.52 743.74 1039.12 743.791 1038.71 743.833V762.181C1039.12 762.138 1039.52 762.092 1039.92 762.038V743.69Z" fill="#017E85"/>
<path d="M1044.01 742.976C1043.62 743.065 1043.22 743.146 1042.81 743.227V761.575C1043.21 761.497 1043.61 761.412 1044.01 761.323V742.976Z" fill="#017E85"/>
</g>
<g filter="url(#filter2_d_711_1479)">
<rect x="1303" y="627.407" width="370.321" height="370.321" rx="61.4703" fill="white"/>
</g>
<path fill-rule="evenodd" clip-rule="evenodd" d="M1466.75 807.29C1442.25 817.123 1435.81 850.723 1434.26 872.286C1454.69 868.866 1469.61 858.095 1469.61 845.338C1469.61 845.338 1470.72 827.057 1466.75 807.29Z" fill="url(#paint13_radial_711_1479)"/>
<g clip-path="url(#clip3_711_1479)">
<path d="M1556.36 758.782C1501.79 757.477 1507.11 845.403 1507.11 845.403C1507.11 860.911 1529.16 873.484 1556.36 873.484C1583.56 873.484 1605.61 860.911 1605.61 845.403C1605.61 845.403 1610.94 757.474 1556.36 758.782Z" fill="url(#paint14_radial_711_1479)"/>
<path d="M1582.86 772.715C1582.86 770.062 1581.78 767.561 1579.87 765.359C1573.64 761.064 1565.92 758.553 1556.36 758.782C1545.92 758.532 1537.67 761.55 1531.16 766.594C1529.85 768.48 1529.13 770.546 1529.13 772.715C1529.13 781.572 1541.16 788.751 1556 788.751C1570.83 788.751 1582.86 781.572 1582.86 772.715H1582.86Z" fill="url(#paint15_linear_711_1479)"/>
<path d="M1556.37 779.105C1575.38 779.105 1590.79 763.692 1590.79 744.679C1590.79 725.665 1575.38 710.252 1556.37 710.252C1537.35 710.252 1521.94 725.665 1521.94 744.679C1521.94 763.692 1537.35 779.105 1556.37 779.105Z" fill="url(#paint16_radial_711_1479)"/>
</g>
<g clip-path="url(#clip4_711_1479)">
<path d="M1420.07 758.782C1365.49 757.477 1370.82 845.403 1370.82 845.403C1370.82 860.911 1392.87 873.484 1420.07 873.484C1447.27 873.484 1469.32 860.911 1469.32 845.403C1469.32 845.403 1474.64 757.474 1420.07 758.782Z" fill="url(#paint17_radial_711_1479)"/>
<path d="M1446.57 772.715C1446.57 770.062 1445.49 767.561 1443.58 765.359C1437.34 761.064 1429.63 758.553 1420.07 758.782C1409.63 758.532 1401.38 761.55 1394.87 766.594C1393.56 768.48 1392.84 770.546 1392.84 772.715C1392.84 781.572 1404.86 788.751 1419.7 788.751C1434.54 788.751 1446.57 781.572 1446.57 772.715H1446.57Z" fill="url(#paint18_linear_711_1479)"/>
<path d="M1420.07 779.105C1439.09 779.105 1454.5 763.692 1454.5 744.679C1454.5 725.665 1439.09 710.252 1420.07 710.252C1401.06 710.252 1385.65 725.665 1385.65 744.679C1385.65 763.692 1401.06 779.105 1420.07 779.105Z" fill="url(#paint19_radial_711_1479)"/>
</g>
<g clip-path="url(#clip5_711_1479)">
<path d="M1490.53 798.869C1435.96 797.564 1441.28 885.49 1441.28 885.49C1441.28 900.999 1463.33 913.571 1490.53 913.571C1517.74 913.571 1539.79 900.999 1539.79 885.49C1539.79 885.49 1545.11 797.562 1490.53 798.869Z" fill="url(#paint20_radial_711_1479)"/>
<path d="M1517.03 812.803C1517.03 810.15 1515.95 807.649 1514.04 805.446C1507.81 801.151 1500.09 798.64 1490.53 798.869C1480.09 798.619 1471.84 801.638 1465.33 806.681C1464.02 808.567 1463.3 810.634 1463.3 812.803C1463.3 821.66 1475.33 828.839 1490.17 828.839C1505 828.839 1517.03 821.66 1517.03 812.803H1517.03Z" fill="url(#paint21_linear_711_1479)"/>
<path d="M1490.54 819.193C1509.55 819.193 1524.96 803.779 1524.96 784.766C1524.96 765.753 1509.55 750.339 1490.54 750.339C1471.52 750.339 1456.11 765.753 1456.11 784.766C1456.11 803.779 1471.52 819.193 1490.54 819.193Z" fill="url(#paint22_radial_711_1479)"/>
</g>
<path d="M349.888 490H313.285L369.058 328.442H413.076L468.77 490H432.167L391.698 365.36H390.436L349.888 490ZM347.601 426.497H434.06V453.16H347.601V426.497ZM522.373 328.442V490H488.215V328.442H522.373ZM638.256 490L592.029 328.442H629.342L656.084 440.696H657.425L686.929 328.442H718.878L748.302 440.933H749.722L776.464 328.442H813.777L767.55 490H734.26L703.495 384.372H702.233L671.546 490H638.256ZM873.159 492.367C860.905 492.367 850.308 489.763 841.368 484.557C832.48 479.298 825.617 471.988 820.778 462.627C815.94 453.213 813.521 442.3 813.521 429.889C813.521 417.372 815.94 406.433 820.778 397.072C825.617 387.659 832.48 380.349 841.368 375.142C850.308 369.883 860.905 367.253 873.159 367.253C885.412 367.253 895.983 369.883 904.871 375.142C913.811 380.349 920.701 387.659 925.539 397.072C930.377 406.433 932.797 417.372 932.797 429.889C932.797 442.3 930.377 453.213 925.539 462.627C920.701 471.988 913.811 479.298 904.871 484.557C895.983 489.763 885.412 492.367 873.159 492.367ZM873.317 466.334C878.891 466.334 883.545 464.756 887.279 461.601C891.013 458.393 893.827 454.028 895.72 448.506C897.666 442.984 898.639 436.699 898.639 429.652C898.639 422.605 897.666 416.321 895.72 410.798C893.827 405.276 891.013 400.911 887.279 397.703C883.545 394.495 878.891 392.891 873.317 392.891C867.689 392.891 862.956 394.495 859.117 397.703C855.331 400.911 852.464 405.276 850.518 410.798C848.625 416.321 847.679 422.605 847.679 429.652C847.679 436.699 848.625 442.984 850.518 448.506C852.464 454.028 855.331 458.393 859.117 461.601C862.956 464.756 867.689 466.334 873.317 466.334ZM954.648 490V368.831H987.228V389.973H988.49C990.699 382.452 994.407 376.772 999.613 372.933C1004.82 369.042 1010.81 367.096 1017.6 367.096C1019.28 367.096 1021.1 367.201 1023.04 367.411C1024.99 367.622 1026.7 367.911 1028.17 368.279V398.098C1026.59 397.625 1024.41 397.204 1021.62 396.836C1018.83 396.468 1016.28 396.283 1013.97 396.283C1009.03 396.283 1004.61 397.362 1000.72 399.518C996.878 401.621 993.828 404.567 991.567 408.353C989.358 412.14 988.253 416.505 988.253 421.448V490H954.648ZM1075.99 455.132L1076.07 414.822H1080.96L1119.78 368.831H1158.35L1106.21 429.731H1098.24L1075.99 455.132ZM1045.54 490V328.442H1079.15V490H1045.54ZM1121.27 490L1085.62 437.225L1108.02 413.481L1160.64 490H1121.27ZM1240 368.831V394.075H1165.21V368.831H1240ZM1182.33 490V360.075C1182.33 351.292 1184.04 344.008 1187.46 338.223C1190.93 332.438 1195.66 328.1 1201.66 325.207C1207.65 322.315 1214.47 320.868 1222.09 320.868C1227.24 320.868 1231.95 321.263 1236.21 322.052C1240.52 322.841 1243.73 323.551 1245.84 324.182L1239.84 349.425C1238.53 349.004 1236.9 348.61 1234.95 348.242C1233.06 347.874 1231.11 347.69 1229.11 347.69C1224.17 347.69 1220.72 348.847 1218.78 351.161C1216.83 353.422 1215.86 356.604 1215.86 360.706V490H1182.33ZM1310.94 492.367C1298.68 492.367 1288.09 489.763 1279.15 484.557C1270.26 479.298 1263.39 471.988 1258.56 462.627C1253.72 453.213 1251.3 442.3 1251.3 429.889C1251.3 417.372 1253.72 406.433 1258.56 397.072C1263.39 387.659 1270.26 380.349 1279.15 375.142C1288.09 369.883 1298.68 367.253 1310.94 367.253C1323.19 367.253 1333.76 369.883 1342.65 375.142C1351.59 380.349 1358.48 387.659 1363.32 397.072C1368.16 406.433 1370.57 417.372 1370.57 429.889C1370.57 442.3 1368.16 453.213 1363.32 462.627C1358.48 471.988 1351.59 479.298 1342.65 484.557C1333.76 489.763 1323.19 492.367 1310.94 492.367ZM1311.09 466.334C1316.67 466.334 1321.32 464.756 1325.06 461.601C1328.79 458.393 1331.6 454.028 1333.5 448.506C1335.44 442.984 1336.42 436.699 1336.42 429.652C1336.42 422.605 1335.44 416.321 1333.5 410.798C1331.6 405.276 1328.79 400.911 1325.06 397.703C1321.32 394.495 1316.67 392.891 1311.09 392.891C1305.47 392.891 1300.73 394.495 1296.89 397.703C1293.11 400.911 1290.24 405.276 1288.3 410.798C1286.4 416.321 1285.46 422.605 1285.46 429.652C1285.46 436.699 1286.4 442.984 1288.3 448.506C1290.24 454.028 1293.11 458.393 1296.89 461.601C1300.73 464.756 1305.47 466.334 1311.09 466.334ZM1392.43 490V368.831H1425.01V389.973H1426.27C1428.48 382.452 1432.18 376.772 1437.39 372.933C1442.6 369.042 1448.59 367.096 1455.38 367.096C1457.06 367.096 1458.87 367.201 1460.82 367.411C1462.77 367.622 1464.47 367.911 1465.95 368.279V398.098C1464.37 397.625 1462.19 397.204 1459.4 396.836C1456.61 396.468 1454.06 396.283 1451.75 396.283C1446.8 396.283 1442.39 397.362 1438.5 399.518C1434.66 401.621 1431.61 404.567 1429.34 408.353C1427.14 412.14 1426.03 416.505 1426.03 421.448V490H1392.43ZM1532.43 492.367C1520.02 492.367 1509.34 489.737 1500.4 484.478C1491.51 479.166 1484.68 471.804 1479.89 462.39C1475.16 452.976 1472.79 442.143 1472.79 429.889C1472.79 417.478 1475.18 406.591 1479.97 397.23C1484.81 387.816 1491.67 380.48 1500.56 375.221C1509.45 369.909 1520.02 367.253 1532.27 367.253C1542.84 367.253 1552.1 369.173 1560.04 373.012C1567.98 376.851 1574.26 382.242 1578.89 389.184C1583.52 396.126 1586.07 404.277 1586.54 413.638H1554.83C1553.94 407.59 1551.57 402.726 1547.73 399.044C1543.95 395.311 1538.98 393.444 1532.82 393.444C1527.62 393.444 1523.07 394.864 1519.18 397.703C1515.34 400.491 1512.34 404.567 1510.18 409.931C1508.03 415.295 1506.95 421.79 1506.95 429.416C1506.95 437.146 1508 443.72 1510.1 449.137C1512.26 454.554 1515.28 458.682 1519.18 461.522C1523.07 464.362 1527.62 465.782 1532.82 465.782C1536.66 465.782 1540.11 464.993 1543.16 463.415C1546.26 461.838 1548.81 459.55 1550.81 456.552C1552.86 453.502 1554.2 449.847 1554.83 445.587H1586.54C1586.02 454.843 1583.49 462.995 1578.97 470.042C1574.5 477.036 1568.32 482.506 1560.43 486.45C1552.54 490.394 1543.21 492.367 1532.43 492.367ZM1663.28 492.367C1650.82 492.367 1640.09 489.842 1631.1 484.794C1622.15 479.692 1615.27 472.487 1610.43 463.179C1605.59 453.818 1603.17 442.747 1603.17 429.968C1603.17 417.504 1605.59 406.565 1610.43 397.151C1615.27 387.737 1622.08 380.401 1630.86 375.142C1639.69 369.883 1650.05 367.253 1661.94 367.253C1669.93 367.253 1677.37 368.542 1684.26 371.119C1691.21 373.643 1697.25 377.456 1702.41 382.557C1707.61 387.659 1711.66 394.075 1714.56 401.805C1717.45 409.484 1718.9 418.477 1718.9 428.784V438.014H1616.58V417.188H1687.26C1687.26 412.35 1686.21 408.064 1684.11 404.33C1682 400.596 1679.08 397.677 1675.35 395.574C1671.67 393.417 1667.38 392.339 1662.49 392.339C1657.39 392.339 1652.87 393.522 1648.92 395.889C1645.03 398.203 1641.98 401.332 1639.77 405.276C1637.56 409.168 1636.43 413.507 1636.38 418.293V438.093C1636.38 444.088 1637.48 449.269 1639.69 453.634C1641.96 457.999 1645.14 461.364 1649.24 463.731C1653.34 466.098 1658.21 467.281 1663.83 467.281C1667.57 467.281 1670.99 466.755 1674.09 465.703C1677.19 464.651 1679.85 463.074 1682.06 460.97C1684.26 458.866 1685.95 456.289 1687.1 453.239L1718.19 455.29C1716.61 462.758 1713.37 469.279 1708.48 474.854C1703.64 480.376 1697.39 484.688 1689.71 487.791C1682.08 490.841 1673.27 492.367 1663.28 492.367Z" fill="white"/>
</g>
<defs>
<filter id="filter0_d_711_1479" x="363.93" y="600.337" width="424.462" height="424.462" filterUnits="userSpaceOnUse" color-interpolation-filters="sRGB">
<feFlood flood-opacity="0" result="BackgroundImageFix"/>
<feColorMatrix in="SourceAlpha" type="matrix" values="0 0 0 0 0 0 0 0 0 0 0 0 0 0 0 0 0 0 127 0" result="hardAlpha"/>
<feMorphology radius="6.76757" operator="erode" in="SourceAlpha" result="effect1_dropShadow_711_1479"/>
<feOffset/>
<feGaussianBlur stdDeviation="16.9189"/>
<feComposite in2="hardAlpha" operator="out"/>
<feColorMatrix type="matrix" values="0 0 0 0 0.734714 0 0 0 0 0.647361 0 0 0 0 0.983333 0 0 0 0.5 0"/>
<feBlend mode="normal" in2="BackgroundImageFix" result="effect1_dropShadow_711_1479"/>
<feBlend mode="normal" in="SourceGraphic" in2="effect1_dropShadow_711_1479" result="shape"/>
</filter>
<filter id="filter1_d_711_1479" x="819.93" y="600.337" width="424.462" height="424.462" filterUnits="userSpaceOnUse" color-interpolation-filters="sRGB">
<feFlood flood-opacity="0" result="BackgroundImageFix"/>
<feColorMatrix in="SourceAlpha" type="matrix" values="0 0 0 0 0 0 0 0 0 0 0 0 0 0 0 0 0 0 127 0" result="hardAlpha"/>
<feMorphology radius="6.76757" operator="erode" in="SourceAlpha" result="effect1_dropShadow_711_1479"/>
<feOffset/>
<feGaussianBlur stdDeviation="16.9189"/>
<feComposite in2="hardAlpha" operator="out"/>
<feColorMatrix type="matrix" values="0 0 0 0 0.734714 0 0 0 0 0.647361 0 0 0 0 0.983333 0 0 0 0.5 0"/>
<feBlend mode="normal" in2="BackgroundImageFix" result="effect1_dropShadow_711_1479"/>
<feBlend mode="normal" in="SourceGraphic" in2="effect1_dropShadow_711_1479" result="shape"/>
</filter>
<filter id="filter2_d_711_1479" x="1275.93" y="600.337" width="424.462" height="424.462" filterUnits="userSpaceOnUse" color-interpolation-filters="sRGB">
<feFlood flood-opacity="0" result="BackgroundImageFix"/>
<feColorMatrix in="SourceAlpha" type="matrix" values="0 0 0 0 0 0 0 0 0 0 0 0 0 0 0 0 0 0 127 0" result="hardAlpha"/>
<feMorphology radius="6.76757" operator="erode" in="SourceAlpha" result="effect1_dropShadow_711_1479"/>
<feOffset/>
<feGaussianBlur stdDeviation="16.9189"/>
<feComposite in2="hardAlpha" operator="out"/>
<feColorMatrix type="matrix" values="0 0 0 0 0.734714 0 0 0 0 0.647361 0 0 0 0 0.983333 0 0 0 0.5 0"/>
<feBlend mode="normal" in2="BackgroundImageFix" result="effect1_dropShadow_711_1479"/>
<feBlend mode="normal" in="SourceGraphic" in2="effect1_dropShadow_711_1479" result="shape"/>
</filter>
<radialGradient id="paint0_radial_711_1479" cx="0" cy="0" r="1" gradientUnits="userSpaceOnUse" gradientTransform="rotate(28.5832) scale(2679.58 3048.08)">
<stop stop-color="#FEE2E2"/>
<stop offset="1" stop-color="#FEE2E2"/>
</radialGradient>
<linearGradient id="paint1_linear_711_1479" x1="530.522" y1="802.166" x2="530.522" y2="868.97" gradientUnits="userSpaceOnUse">
<stop stop-color="#BC53D4"/>
<stop offset="1" stop-color="#C163DC"/>
</linearGradient>
<linearGradient id="paint2_linear_711_1479" x1="509.613" y1="800.27" x2="509.613" y2="868.971" gradientUnits="userSpaceOnUse">
<stop stop-color="#A624BB"/>
<stop offset="1" stop-color="#BE57D6"/>
</linearGradient>
<linearGradient id="paint3_linear_711_1479" x1="466.574" y1="734.747" x2="482.615" y2="745.882" gradientUnits="userSpaceOnUse">
<stop stop-color="#BC52D3"/>
<stop offset="1" stop-color="#A726BC"/>
</linearGradient>
<linearGradient id="paint4_linear_711_1479" x1="539.161" y1="727.033" x2="492.038" y2="799.288" gradientUnits="userSpaceOnUse">
<stop stop-color="#BE54D5"/>
<stop offset="0.337576" stop-color="#C782E9"/>
<stop offset="1" stop-color="#BD52D4"/>
</linearGradient>
<linearGradient id="paint5_linear_711_1479" x1="576.86" y1="742.74" x2="520.312" y2="833.845" gradientUnits="userSpaceOnUse">
<stop stop-color="#D7A9FF"/>
<stop offset="0.318312" stop-color="#EFD8FF"/>
<stop offset="1" stop-color="#D7A9FF"/>
</linearGradient>
<linearGradient id="paint6_linear_711_1479" x1="583.143" y1="789.863" x2="680.531" y2="855.835" gradientUnits="userSpaceOnUse">
<stop stop-color="#D3A0FF"/>
<stop offset="1" stop-color="#F3DFFF"/>
</linearGradient>
<linearGradient id="paint7_linear_711_1479" x1="576.86" y1="805.571" x2="623.983" y2="833.845" gradientUnits="userSpaceOnUse">
<stop stop-color="#BA42CD"/>
<stop offset="1" stop-color="#CC9FF4"/>
</linearGradient>
<radialGradient id="paint8_radial_711_1479" cx="0" cy="0" r="1" gradientUnits="userSpaceOnUse" gradientTransform="translate(1068.8 863.752) rotate(-133.363) scale(155.561 136.245)">
<stop stop-color="#ADF3F8"/>
<stop offset="1" stop-color="#30D3B6"/>
</radialGradient>
<radialGradient id="paint9_radial_711_1479" cx="0" cy="0" r="1" gradientUnits="userSpaceOnUse" gradientTransform="translate(1015.39 728.666) rotate(59.4703) scale(142.239 223.855)">
<stop stop-color="#4ADAC4"/>
<stop offset="1" stop-color="#E4F9FA"/>
</radialGradient>
<radialGradient id="paint10_radial_711_1479" cx="0" cy="0" r="1" gradientUnits="userSpaceOnUse" gradientTransform="translate(1034.24 731.808) rotate(-90) scale(43.9813 76.5989)">
<stop stop-color="#00746D"/>
<stop offset="1" stop-color="#42C6BE"/>
</radialGradient>
<linearGradient id="paint11_linear_711_1479" x1="1033.05" y1="693.043" x2="1033.05" y2="728.533" gradientUnits="userSpaceOnUse">
<stop stop-color="#087D75"/>
<stop offset="1" stop-color="#3ABBB3"/>
</linearGradient>
<linearGradient id="paint12_linear_711_1479" x1="949.423" y1="832.337" x2="999.687" y2="844.903" gradientUnits="userSpaceOnUse">
<stop stop-color="#22AEB7" stop-opacity="0"/>
<stop offset="0.53169" stop-color="#22AEB7" stop-opacity="0.47"/>
<stop offset="1" stop-color="#22AEB7" stop-opacity="0"/>
</linearGradient>
<radialGradient id="paint13_radial_711_1479" cx="0" cy="0" r="1" gradientUnits="userSpaceOnUse" gradientTransform="translate(1512.34 804.498) rotate(146.31) scale(101.941 155.845)">
<stop offset="0.412221" stop-color="#01BFA6"/>
<stop offset="1" stop-color="#01979E" stop-opacity="0"/>
</radialGradient>
<radialGradient id="paint14_radial_711_1479" cx="0" cy="0" r="1" gradientUnits="userSpaceOnUse" gradientTransform="translate(1594.75 759.634) rotate(132.207) scale(130.307 199.21)">
<stop stop-color="#FFD6AD"/>
<stop offset="1" stop-color="#EC811D"/>
</radialGradient>
<linearGradient id="paint15_linear_711_1479" x1="1583.52" y1="773.102" x2="1527.41" y2="773.102" gradientUnits="userSpaceOnUse">
<stop stop-color="#EE8A2D"/>
<stop offset="1" stop-color="#C85F00"/>
</linearGradient>
<radialGradient id="paint16_radial_711_1479" cx="0" cy="0" r="1" gradientUnits="userSpaceOnUse" gradientTransform="translate(1592.51 710.252) rotate(136.848) scale(98.4593)">
<stop stop-color="#FFD6AD"/>
<stop offset="1" stop-color="#EC811D"/>
</radialGradient>
<radialGradient id="paint17_radial_711_1479" cx="0" cy="0" r="1" gradientUnits="userSpaceOnUse" gradientTransform="translate(1458.45 759.634) rotate(132.207) scale(130.307 199.21)">
<stop stop-color="#ADF4F7"/>
<stop offset="1" stop-color="#00C8A8"/>
</radialGradient>
<linearGradient id="paint18_linear_711_1479" x1="1447.23" y1="773.102" x2="1391.11" y2="773.102" gradientUnits="userSpaceOnUse">
<stop stop-color="#00C0A6"/>
<stop offset="1" stop-color="#00949D"/>
</linearGradient>
<radialGradient id="paint19_radial_711_1479" cx="0" cy="0" r="1" gradientUnits="userSpaceOnUse" gradientTransform="translate(1456.21 710.252) rotate(136.848) scale(98.4593)">
<stop stop-color="#ADF4F7"/>
<stop offset="1" stop-color="#00C8A8"/>
</radialGradient>
<radialGradient id="paint20_radial_711_1479" cx="0" cy="0" r="1" gradientUnits="userSpaceOnUse" gradientTransform="translate(1528.92 799.721) rotate(132.207) scale(130.307 199.21)">
<stop stop-color="#1F93FF"/>
<stop offset="1" stop-color="#3A36FF"/>
</radialGradient>
<linearGradient id="paint21_linear_711_1479" x1="1517.69" y1="813.19" x2="1461.58" y2="813.19" gradientUnits="userSpaceOnUse">
<stop stop-color="#006AFF"/>
<stop offset="1" stop-color="#003CE1"/>
</linearGradient>
<radialGradient id="paint22_radial_711_1479" cx="0" cy="0" r="1" gradientUnits="userSpaceOnUse" gradientTransform="translate(1526.68 750.339) rotate(136.848) scale(98.4593)">
<stop stop-color="#1F93FF"/>
<stop offset="1" stop-color="#3A36FF"/>
</radialGradient>
<clipPath id="clip0_711_1479">
<rect width="2352.6" height="1281.87" fill="white"/>
</clipPath>
<clipPath id="clip1_711_1479">
<rect width="234.293" height="200.806" fill="white" transform="translate(458.676 711.325)"/>
</clipPath>
<clipPath id="clip2_711_1479">
<rect width="164.982" height="239.824" fill="white" transform="translate(949.867 693.042)"/>
</clipPath>
<clipPath id="clip3_711_1479">
<rect width="98.7848" height="163.233" fill="white" transform="translate(1506.97 710.252)"/>
</clipPath>
<clipPath id="clip4_711_1479">
<rect width="98.7848" height="163.233" fill="white" transform="translate(1370.68 710.252)"/>
</clipPath>
<clipPath id="clip5_711_1479">
<rect width="98.7848" height="163.233" fill="white" transform="translate(1441.14 750.339)"/>
</clipPath>
</defs>
</svg>
